<svg xmlns="http://www.w3.org/2000/svg" id="load-screen-title" viewBox="0 0 512 110"
     preserveAspectRatio="xMidYMid meet" role="img" aria-label="TaterPal">
    <title>TaterPal</title>
    <g id="logo-text-g">
        <path d="M-20 730Q47 722 96.0 718.5Q145 715 177 713Q214 711 239 712Q265 713 310 717Q348 720 410.0 725.5Q472 731 565 741Q566 718 566.5 696.5Q567 675 568 659Q569 640 569 624Q569 607 567 581Q565 559 560.5 525.5Q556 492 547 446Q533 500 520.0 533.5Q507 567 496 587Q484 610 472 622Q459 631 441 637Q425 642 400.5 645.0Q376 648 343 644Q338 512 336.0 430.0Q334 348 333 302Q332 247 332 223Q333 189 343 156Q351 128 369.0 98.0Q387 68 421 45H299Q282 45 257 43Q236 41 203.5 39.0Q171 37 128 32Q143 58 152.0 79.0Q161 100 166 115Q172 133 175 147Q176 167 180 228Q181 253 182.5 290.0Q184 327 186.5 378.0Q189 429 191.5 495.5Q194 562 197 646Q179 651 163.0 645.5Q147 640 135 632Q121 622 108 608Q95 591 79 564Q65 541 47.0 503.5Q29 466 6 411Q1 469 -1.0 506.5Q-3 544 -4 565Q-5 590 -5 602Q-5 613 -7 631Q-9 646 -12.0 670.5Q-15 695 -20 730Z" transform="translate(49.115 94.5) scale(0.107 -0.107)" />
        <path d="M90 405Q95 411 96.5 427.5Q98 444 104.5 465.0Q111 486 127.0 509.0Q143 532 179 552Q214 572 247.0 576.0Q280 580 310.0 573.0Q340 566 366.5 551.0Q393 536 415 518Q430 506 439.0 483.5Q448 461 453.0 433.0Q458 405 460.5 374.5Q463 344 464.0 315.5Q465 287 465.5 263.5Q466 240 469 225Q473 203 483.0 187.5Q493 172 505.0 161.5Q517 151 529.0 145.0Q541 139 550 136Q556 133 561 132Q571 128 575 132Q569 118 564.0 108.0Q559 98 556 91Q552 83 549 78Q546 72 542 67Q539 62 534.0 56.0Q529 50 524 43Q511 48 499.5 55.0Q488 62 479 68Q468 75 459 82Q450 89 442 98Q435 106 427.5 115.0Q420 124 415 135Q409 122 386.5 98.0Q364 74 328.0 54.5Q292 35 244.5 27.0Q197 19 140 38Q115 46 93.0 61.5Q71 77 55.5 99.0Q40 121 33.5 149.5Q27 178 34 213Q41 248 59.0 272.0Q77 296 102.0 311.0Q127 326 158.0 334.0Q189 342 222 345Q248 346 274 342Q296 338 320.0 327.5Q344 317 361 296Q360 349 357.5 380.5Q355 412 353 429Q349 449 346 457Q341 464 335.5 473.0Q330 482 322.0 489.5Q314 497 302.0 502.0Q290 507 274 506Q257 505 247.0 497.0Q237 489 231.5 478.5Q226 468 225.0 456.0Q224 444 226 435Q228 429 232 422Q236 416 243.0 409.0Q250 402 262 397Q239 394 221.0 392.5Q203 391 190 389Q175 387 164 386Q153 385 138 382Q125 380 106.0 377.0Q87 374 62 369Q68 376 73.0 382.5Q78 389 82 394Q86 400 90 405ZM240 286Q222 285 204.0 277.5Q186 270 172.0 256.5Q158 243 148.5 225.5Q139 208 139 187Q139 166 149.5 150.5Q160 135 177.5 125.0Q195 115 215.5 113.0Q236 111 256 117Q275 124 292.0 139.5Q309 155 321.0 173.5Q333 192 338.0 210.5Q343 229 339 241Q331 267 303.0 277.5Q275 288 240 286Z" transform="translate(106.788 94.5) scale(0.107 -0.107)" />
        <path d="M3 630Q33 627 53.5 625.0Q74 623 87 622Q102 621 111 621Q120 620 135 621Q148 622 169.0 623.5Q190 625 222 629Q215 619 211.0 611.5Q207 604 204 598L198 586Q196 580 194 574Q192 569 190.5 562.0Q189 555 188 547H342L328 466L187 474Q182 423 180.0 395.0Q178 367 176 354L174 336Q171 298 168.0 253.5Q165 209 166.0 171.0Q167 133 173.0 107.5Q179 82 194 82Q209 82 222.0 90.0Q235 98 244.5 109.0Q254 120 259.0 131.5Q264 143 264 149Q264 155 261 163Q256 178 243 201Q272 194 294 187Q305 183 314 179Q324 175 337 170Q348 165 365.0 158.0Q382 151 405 141Q383 137 373 128Q367 124 364 119Q357 108 348.0 89.5Q339 71 321.0 53.0Q303 35 272.5 21.0Q242 7 191 5Q138 3 110.5 23.0Q83 43 70.5 69.5Q58 96 56.0 122.0Q54 148 53 157Q52 166 53.0 202.0Q54 238 56.0 281.5Q58 325 60.0 365.5Q62 406 62 425Q62 435 63 446Q63 455 63.5 465.5Q64 476 64 486L-81 487L-87 544L59 540Q57 551 54.5 560.5Q52 570 50 576Q47 583 44 588Q40 593 35 599Q30 604 22.0 612.0Q14 620 3 630Z" transform="translate(165.638 94.5) scale(0.107 -0.107)" />
        <path d="M275 161Q303 161 327 167Q347 172 365.5 183.5Q384 195 390 218Q410 214 424.0 211.5Q438 209 448 207Q459 204 467 203Q475 201 486 199Q496 197 510.5 194.5Q525 192 545 188Q530 190 514.5 185.0Q499 180 485 174Q469 167 455 157Q446 151 434.5 139.0Q423 127 402.0 116.0Q381 105 346.5 97.5Q312 90 258 92Q193 94 149.0 115.5Q105 137 78.0 168.5Q51 200 39.0 237.0Q27 274 26 306Q25 338 45.0 373.0Q65 408 101.5 437.0Q138 466 190.0 484.5Q242 503 304 503Q340 503 370.5 494.5Q401 486 426.5 472.0Q452 458 471.0 440.5Q490 423 503 405Q516 386 525 365Q533 347 538.0 324.0Q543 301 541 277Q465 275 418.5 274.0Q372 273 346 273H301H267Q249 273 220.0 272.0Q191 271 149 269Q154 229 174.5 207.5Q195 186 218 175Q244 163 275 161ZM185 341Q217 339 238.5 338.0Q260 337 274 336Q289 335 298 335H323Q348 335 416 338Q413 382 397.5 405.0Q382 428 365 439Q345 451 321 453Q256 452 224.5 426.0Q193 400 185 341Z" transform="translate(202.981 94.5) scale(0.107 -0.107)" />
        <path d="M5 479Q24 478 39.5 478.5Q55 479 66 480Q79 481 89 482Q104 484 120 487Q134 489 149.5 492.5Q165 496 180 501Q174 486 170.0 475.0Q166 464 164 456Q161 447 161 441Q160 434 160 424Q159 407 160 369Q212 414 247.5 439.0Q283 464 304 478Q329 494 343 499Q380 505 408 482Q420 472 431.0 455.5Q442 439 450.0 412.0Q458 385 462.0 347.5Q466 310 463 258Q442 256 425.5 254.0Q409 252 398 251Q385 249 374 249L347 246Q333 244 312.5 242.5Q292 241 263 238Q305 272 317.5 297.5Q330 323 328 340Q326 359 310 373Q291 384 269 381Q250 379 225.0 364.0Q200 349 172 308Q174 244 176.5 202.0Q179 160 181 134Q184 104 186 87Q189 72 198 55Q205 41 218.0 24.0Q231 7 252 -10Q208 -8 180 -10Q163 -11 150 -12Q136 -14 120 -16Q106 -18 87.5 -20.5Q69 -23 47 -26Q55 -15 60.0 -0.5Q65 14 68 27Q72 42 74 58Q75 72 75.5 100.0Q76 128 74.5 163.5Q73 199 71.0 237.5Q69 276 66.0 310.0Q63 344 59.5 369.5Q56 395 52 405Q47 417 40 429Q34 440 25.0 452.5Q16 465 5 479Z" transform="translate(263.543 94.5) scale(0.107 -0.107)" />
        <path d="M-36 716Q2 707 32.5 702.5Q63 698 84 696Q109 693 128 694Q152 695 188.0 701.0Q224 707 264.0 713.0Q304 719 343.0 723.0Q382 727 411 724Q440 721 472.0 710.5Q504 700 532.0 682.5Q560 665 580.5 640.0Q601 615 606 582Q611 550 600.0 513.5Q589 477 565.0 442.5Q541 408 505.0 379.0Q469 350 425 332Q390 319 349 312Q314 306 267.5 304.5Q221 303 169 314Q162 285 161.5 260.5Q161 236 163 217Q166 195 171 177Q177 159 186 135Q194 115 204.5 86.5Q215 58 230 23Q212 23 195.0 22.5Q178 22 164 21Q148 20 134 19Q118 18 98 15Q81 13 55.5 9.0Q30 5 -2 -1Q19 29 31.5 54.5Q44 80 50 99Q57 121 59 139Q60 154 59.5 192.0Q59 230 58.0 280.0Q57 330 55.0 385.0Q53 440 50.0 488.5Q47 537 43.5 572.0Q40 607 37 618Q33 631 23 646Q15 659 0.5 676.5Q-14 694 -36 716ZM171 519Q170 509 170 498Q170 477 173 444Q180 427 190.5 416.0Q201 405 213.5 399.0Q226 393 239.0 391.0Q252 389 265 389Q295 390 328 403Q372 422 390.0 457.0Q408 492 409.0 529.0Q410 566 396.5 597.0Q383 628 364 639Q348 646 323 645Q301 644 268.0 634.0Q235 624 187 598Q182 580 179.0 566.0Q176 552 174 541Q172 529 171 519Z" transform="translate(315.974 94.5) scale(0.107 -0.107)" />
        <path d="M90 405Q95 411 96.5 427.5Q98 444 104.5 465.0Q111 486 127.0 509.0Q143 532 179 552Q214 572 247.0 576.0Q280 580 310.0 573.0Q340 566 366.5 551.0Q393 536 415 518Q430 506 439.0 483.5Q448 461 453.0 433.0Q458 405 460.5 374.5Q463 344 464.0 315.5Q465 287 465.5 263.5Q466 240 469 225Q473 203 483.0 187.5Q493 172 505.0 161.5Q517 151 529.0 145.0Q541 139 550 136Q556 133 561 132Q571 128 575 132Q569 118 564.0 108.0Q559 98 556 91Q552 83 549 78Q546 72 542 67Q539 62 534.0 56.0Q529 50 524 43Q511 48 499.5 55.0Q488 62 479 68Q468 75 459 82Q450 89 442 98Q435 106 427.5 115.0Q420 124 415 135Q409 122 386.5 98.0Q364 74 328.0 54.5Q292 35 244.5 27.0Q197 19 140 38Q115 46 93.0 61.5Q71 77 55.5 99.0Q40 121 33.5 149.5Q27 178 34 213Q41 248 59.0 272.0Q77 296 102.0 311.0Q127 326 158.0 334.0Q189 342 222 345Q248 346 274 342Q296 338 320.0 327.5Q344 317 361 296Q360 349 357.5 380.5Q355 412 353 429Q349 449 346 457Q341 464 335.5 473.0Q330 482 322.0 489.5Q314 497 302.0 502.0Q290 507 274 506Q257 505 247.0 497.0Q237 489 231.5 478.5Q226 468 225.0 456.0Q224 444 226 435Q228 429 232 422Q236 416 243.0 409.0Q250 402 262 397Q239 394 221.0 392.5Q203 391 190 389Q175 387 164 386Q153 385 138 382Q125 380 106.0 377.0Q87 374 62 369Q68 376 73.0 382.5Q78 389 82 394Q86 400 90 405ZM240 286Q222 285 204.0 277.5Q186 270 172.0 256.5Q158 243 148.5 225.5Q139 208 139 187Q139 166 149.5 150.5Q160 135 177.5 125.0Q195 115 215.5 113.0Q236 111 256 117Q275 124 292.0 139.5Q309 155 321.0 173.5Q333 192 338.0 210.5Q343 229 339 241Q331 267 303.0 277.5Q275 288 240 286Z" transform="translate(379.852 94.5) scale(0.107 -0.107)" />
        <path d="M38 -28Q48 -13 54.0 0.0Q60 13 64 22Q68 33 70 42Q71 48 71.0 77.0Q71 106 69.5 150.0Q68 194 66.5 249.0Q65 304 62.5 361.0Q60 418 57.5 472.0Q55 526 53.0 569.5Q51 613 49.0 641.0Q47 669 46 673Q44 679 39 685Q29 697 5 708Q56 721 83 729Q99 733 111 737Q122 741 133 745Q142 749 153.0 754.5Q164 760 173 767Q168 738 165.0 711.0Q162 684 160 661Q158 635 158 611Q153 562 152.5 504.5Q152 447 153.0 388.0Q154 329 157.0 273.0Q160 217 163.5 171.5Q167 126 170.5 94.5Q174 63 176 54Q180 39 184 25Q188 13 193.0 -0.5Q198 -14 205 -22H108Q95 -22 83 -23Q72 -24 60.0 -25.0Q48 -26 38 -28Z" transform="translate(438.702 94.5) scale(0.107 -0.107)" />
    </g>
    <style>
        #logo-text-g &gt; * {
            opacity: 0;
            animation: logo 0.6s ease-out 0.2s forwards;
            fill: #055581;
        }

        @keyframes logo {
            from { opacity: 0; translate: 0 10px; }
            to { opacity: 1; translate: 0 0; }
        }

        @media (prefers-reduced-motion: reduce) {
            #logo-text-g &gt; * { animation: none; opacity: 1; }
        }
    </style>
</svg>
